<svg xmlns="http://www.w3.org/2000/svg" xmlns:xlink="http://www.w3.org/1999/xlink" width="140.083" height="140.083" viewBox="0 0 140.083 140.083">
  <defs>
    <filter id="bg" x="0" y="0" width="140.083" height="140.083" filterUnits="userSpaceOnUse">
      <feOffset dy="10" input="SourceAlpha"/>
      <feGaussianBlur stdDeviation="10" result="blur"/>
      <feFlood flood-color="#7e76f9" flood-opacity="0.161"/>
      <feComposite operator="in" in2="blur"/>
      <feComposite in="SourceGraphic"/>
    </filter>
  </defs>
  <g id="Group_1295" data-name="Group 1295" transform="translate(-733 -605)">
    <g transform="matrix(1, 0, 0, 1, 733, 605)" filter="url(#bg)">
      <circle id="bg-2" data-name="bg" cx="40.042" cy="40.042" r="40.042" transform="translate(30 20)" fill="#fff"/>
    </g>
    <g id="mouse" transform="translate(789.155 644.616)">
      <g id="Group_1291" data-name="Group 1291" transform="translate(0)">
        <g id="Group_1290" data-name="Group 1290">
          <path id="Path_1211" data-name="Path 1211" d="M48.82,0A13.763,13.763,0,0,0,35.069,13.744V27.51a13.751,13.751,0,0,0,27.5,0V13.744A13.764,13.764,0,0,0,48.82,0ZM61.043,27.51a12.223,12.223,0,0,1-24.446,0V13.744a12.223,12.223,0,0,1,24.446,0Z" transform="translate(-35.069 0)" fill="#7e76f9"/>
          <path id="Path_1212" data-name="Path 1212" d="M102.074,23.379a.764.764,0,0,0-.764.764v6.918a.764.764,0,1,0,1.528,0V24.143A.764.764,0,0,0,102.074,23.379Z" transform="translate(-88.323 -18.795)" fill="#7e76f9"/>
        </g>
      </g>
    </g>
  </g>
</svg>
